<svg xmlns="http://www.w3.org/2000/svg" width="319" height="104" viewBox="0 0 319 104" fill="none"><path fill-rule="evenodd" clip-rule="evenodd" d="M228.326 34.8476V62.6281C228.326 64.8213 230.032 66.7709 232.469 66.7709H269.995V56.7796H240.998C240.023 56.7796 239.536 56.0485 239.536 55.3175V42.1582C239.536 41.1835 240.267 40.6961 240.998 40.6961H269.752V30.7048H232.469C230.032 30.7048 228.326 32.6543 228.326 34.8476Z" fill="white"></path><path fill-rule="evenodd" clip-rule="evenodd" d="M180.809 66.7709H222.478V57.0233H191.775V40.6961H222.478V30.7048H180.809V66.7709Z" fill="white"></path><path d="M218.092 44.1077H189.825V53.3679H218.092V44.1077Z" fill="white"></path><path fill-rule="evenodd" clip-rule="evenodd" d="M289.246 40.6961H318.244V30.9485H280.717C278.524 30.9485 276.575 32.6544 276.575 35.0913V49.4689C276.575 51.6621 278.28 53.6117 280.717 53.6117H305.329C306.303 53.6117 306.791 54.3427 306.791 55.0738C306.791 56.0485 306.06 56.5359 305.329 56.5359H276.575V66.7709H314.101C316.294 66.7709 318.244 64.8214 318.244 62.6282V47.7631C318.244 45.5699 316.538 43.6204 314.101 43.6204H289.246C288.271 43.6204 287.784 42.8893 287.784 42.1583C287.54 41.4272 288.271 40.6961 289.246 40.6961Z" fill="white"></path><path fill-rule="evenodd" clip-rule="evenodd" d="M168.138 30.9485H130.855V67.0146H141.577V41.4272H159.122C160.097 41.4272 160.584 42.1583 160.584 42.8893V66.7709H172.281V34.8476C172.281 32.6544 170.575 30.9485 168.138 30.9485Z" fill="white"></path><path fill-rule="evenodd" clip-rule="evenodd" d="M36.0645 0L59.4576 13.6466L59.2139 52.6369L36.0645 38.9903V27.2932L53.1219 37.2845V24.3689L36.0645 14.3777V0Z" fill="white"></path><path fill-rule="evenodd" clip-rule="evenodd" d="M85.5308 0L61.6504 13.6466V52.8806L85.5308 38.9903V27.0495L67.7423 37.2845V24.6126L85.5308 14.6214V0Z" fill="white"></path><path fill-rule="evenodd" clip-rule="evenodd" d="M25.0987 103.812L24.855 76.7622L59.2136 57.0233V84.0728L49.2228 89.9214V70.1825L37.5262 77.0058V96.7447L25.0987 103.812Z" fill="white"></path><path fill-rule="evenodd" clip-rule="evenodd" d="M0 60.9223L23.6368 74.8126L58.2391 54.8301L34.3586 40.9398L24.1241 47.0321L41.669 57.267L29.9724 64.0903L12.4276 53.6117L0 60.9223Z" fill="white"></path><path fill-rule="evenodd" clip-rule="evenodd" d="M95.7654 103.812L96.009 76.7622L61.6504 57.0233L61.4067 84.0728L71.8849 89.9214V70.1825L83.5814 76.7622L83.3378 96.7447L95.7654 103.812Z" fill="white"></path><path fill-rule="evenodd" clip-rule="evenodd" d="M120.621 60.9223L97.2277 74.5689L63.1128 54.8301L86.5059 41.1835L96.4967 47.032L79.4392 57.0233L91.1358 63.8466L108.193 53.8553L120.621 60.9223Z" fill="white"></path><path d="M135.972 77.4932V87.4844C135.972 88.9466 135.241 89.6776 134.023 89.6776H132.561C131.343 89.6776 130.612 88.9466 130.612 87.2407V77.4932H132.317V87.4844C132.317 87.9718 132.561 88.2155 133.048 88.2155H133.779C134.267 88.2155 134.51 87.9718 134.51 87.4844V77.4932H135.972V77.4932Z" fill="white"></path><path d="M140.602 89.6776H138.897V85.2912L136.947 77.4932H138.653L139.871 82.8543L141.09 77.4932H142.796L140.846 85.2912V89.6776H140.602Z" fill="white"></path><path d="M148.888 78.9553V89.6776H147.182V78.9553H145.72V77.4932H150.35V78.9553H148.888Z" fill="white"></path><path d="M152.543 76.5184H151.324L152.055 74.5689H153.517L152.543 76.5184ZM151.324 89.6776V77.4932H153.03V89.6776H151.324Z" fill="white"></path><path d="M157.903 83.3417V77.4932H159.609V89.6776H157.903V87.2407L156.198 81.6359V89.6776H154.492V77.4932H156.198L157.903 83.3417Z" fill="white"></path><path d="M166.432 78.9553V89.6776H164.726V78.9553H163.264V77.4932H168.138V78.9553H166.432Z" fill="white"></path><path d="M170.819 89.6776C169.6 89.6776 168.869 88.9466 168.869 87.7281V79.6864C168.869 78.2242 169.6 77.4932 170.819 77.4932H172.281C173.499 77.4932 174.23 78.2242 174.23 79.6864V87.7281C174.23 89.1903 173.499 89.6776 172.281 89.6776H170.819ZM172.037 88.2155C172.524 88.2155 172.768 87.9718 172.768 87.4844V79.6864C172.768 79.199 172.524 78.9553 172.037 78.9553H171.306C170.819 78.9553 170.575 79.199 170.575 79.6864V87.4844C170.575 87.9718 170.819 88.2155 171.306 88.2155H172.037Z" fill="white"></path><path d="M177.154 89.6776H175.448V79.6864C175.448 78.2242 176.179 77.4932 177.398 77.4932H178.616C179.834 77.4932 180.565 78.2242 180.565 79.6864V89.6776H178.86V85.2912H176.91V89.6776H177.154ZM176.667 74.5689H178.129L178.86 76.5184H177.641L176.667 74.5689ZM179.103 83.5854V79.4427C179.103 78.9553 178.86 78.7116 178.372 78.7116H177.885C177.398 78.7116 177.154 78.9553 177.154 79.4427V83.5854H179.103Z" fill="white"></path><path d="M185.439 83.3417V77.4932H187.145V89.6776H185.439V87.2407L183.733 81.6359V89.6776H182.028V77.4932H183.733L185.439 83.3417Z" fill="white"></path><path d="M196.161 86.7534V87.4844C196.161 88.9466 195.43 89.4339 194.211 89.4339H193.237C192.018 89.4339 191.287 88.7029 191.287 87.4844V79.4427C191.287 77.9805 192.018 77.4932 193.237 77.4932H194.211C195.43 77.4932 196.161 78.2242 196.161 79.4427V80.9048H194.455V79.6864C194.455 79.199 194.211 78.9553 193.724 78.9553H193.48C192.993 78.9553 192.749 79.199 192.749 79.6864V87.4844C192.749 87.9718 192.993 88.2155 193.48 88.2155H193.968C194.455 88.2155 194.699 87.9718 194.699 87.4844V86.7534H196.161V86.7534Z" fill="white"></path><path d="M199.085 89.6776H197.379V79.6864C197.379 78.2243 198.11 77.4932 199.329 77.4932H200.547C201.766 77.4932 202.497 78.2243 202.497 79.6864V89.6776H200.791V85.2912H198.841V89.6776H199.085ZM200.06 75.5437L199.329 76.5184H198.11L199.573 74.5689H200.547L202.009 76.5184H200.791L200.06 75.5437ZM201.035 83.5854V79.4427C201.035 78.9553 200.791 78.7116 200.304 78.7116H199.816C199.329 78.7116 199.085 78.9553 199.085 79.4427V83.5854H201.035ZM200.547 73.3505H202.009L202.74 75.0563H201.522L200.547 73.3505Z" fill="white"></path><path d="M209.32 77.4932V87.4844C209.32 88.9466 208.589 89.6776 207.37 89.6776H205.908C204.69 89.6776 203.959 88.9466 203.959 87.2407V77.4932H205.664V87.4844C205.664 87.9718 205.908 88.2155 206.396 88.2155H207.127C207.614 88.2155 207.858 87.9718 207.858 87.4844V77.4932H209.32V77.4932Z" fill="white"></path><path d="M212.975 84.8039V83.3417H216.63V84.8039H212.975Z" fill="white"></path><path d="M220.285 89.6776V77.4932H223.209C224.671 77.4932 225.402 78.2242 225.402 79.9301V87.7281C225.402 88.9466 224.671 89.4339 223.453 89.4339H220.285V89.6776ZM221.991 88.2155H223.209C223.697 88.2155 223.94 87.9718 223.94 87.7281V79.9301C223.94 79.4427 223.697 78.9553 223.209 78.9553H221.991V88.2155Z" fill="white"></path><path d="M228.57 89.6777H226.865V79.6864C226.865 78.2243 227.596 77.4932 228.814 77.4932H230.032C231.251 77.4932 231.982 78.2243 231.982 79.6864V89.6777H230.276V85.2913H228.327V89.6777H228.57ZM229.545 75.5437L228.814 76.5184H227.596L229.058 74.5689H230.032L231.494 76.5184H230.276L229.545 75.5437ZM231.251 72.8631C231.251 73.8379 230.52 74.3252 229.789 74.3252C229.301 74.3252 229.058 73.8379 228.814 73.8379C228.57 73.8379 228.57 73.8379 228.327 74.3252H227.596C227.596 73.3505 228.327 72.8631 228.814 72.8631C229.301 72.8631 229.545 73.3505 230.032 73.3505C230.276 73.3505 230.52 73.1068 230.52 72.8631H231.251ZM230.276 83.5854V79.4427C230.276 78.9553 230.032 78.7116 229.545 78.7116H229.058C228.57 78.7116 228.327 78.9553 228.327 79.4427V83.5854H230.276Z" fill="white"></path><path d="M236.855 83.3417V77.4932H238.561V89.6776H236.855V87.2407L235.15 81.6359V89.6776H233.444V77.4932H235.15L236.855 83.3417Z" fill="white"></path><path d="M242.703 89.6776V84.5602H241.972V83.098H242.703V77.4932H245.628C247.09 77.4932 247.821 78.2242 247.821 79.9301V87.7281C247.821 88.9466 247.09 89.4339 245.871 89.4339H242.703V89.6776ZM244.409 88.2155H245.628C246.115 88.2155 246.359 87.9718 246.359 87.7281V79.9301C246.359 79.4427 246.115 78.9553 245.628 78.9553H244.409V83.098H245.628V84.5602H244.409V88.2155Z" fill="white"></path><path d="M250.745 89.6776H249.039V79.6864C249.039 78.2243 249.77 77.4932 250.988 77.4932H252.207C253.425 77.4932 254.156 78.2243 254.156 79.6864V89.6776H252.451V85.2912H250.501V89.6776H250.745ZM251.72 75.5437L250.988 76.5184H249.77L251.232 74.5689H252.207L253.669 76.5184H252.451L251.72 75.5437ZM252.694 83.5854V79.4427C252.694 78.9553 252.451 78.7116 251.963 78.7116H251.476C250.988 78.7116 250.745 78.9553 250.745 79.4427V83.5854H252.694ZM252.207 73.3505H253.669L254.4 75.0563H253.182L252.207 73.3505Z" fill="white"></path><path d="M260.979 77.4932V87.4844C260.979 88.9466 260.248 89.6776 259.03 89.6776H257.568C256.349 89.6776 255.618 88.9466 255.618 87.2407V77.4932H257.324V87.4844C257.324 87.9718 257.568 88.2155 258.055 88.2155H258.786C259.274 88.2155 259.517 87.9718 259.517 87.4844V77.4932H260.979V77.4932Z" fill="white"></path><path d="M270.239 86.7534V87.4844C270.239 88.9466 269.508 89.4339 268.29 89.4339H267.315C266.097 89.4339 265.366 88.7029 265.366 87.4844V79.4427C265.366 77.9805 266.097 77.4932 267.315 77.4932H268.29C269.508 77.4932 270.239 78.2242 270.239 79.4427V80.9048H268.534V79.6864C268.534 79.199 268.29 78.9553 267.803 78.9553H267.559C267.071 78.9553 266.828 79.199 266.828 79.6864V87.4844C266.828 87.9718 267.071 88.2155 267.559 88.2155H268.046C268.534 88.2155 268.777 87.9718 268.777 87.4844V86.7534H270.239V86.7534Z" fill="white"></path><path d="M273.407 89.6776C272.189 89.6776 271.458 88.9466 271.458 87.7281V79.6864C271.458 78.2242 272.189 77.4932 273.407 77.4932H274.869C276.087 77.4932 276.818 78.2242 276.818 79.6864V87.7281C276.818 89.1903 276.087 89.6776 274.869 89.6776H273.407ZM274.138 75.5437L273.407 76.5184H272.189L273.651 74.5689H274.625L276.087 76.5184H274.869L274.138 75.5437ZM274.625 88.2155C275.113 88.2155 275.356 87.9718 275.356 87.4844V79.6864C275.356 79.199 275.113 78.9553 274.625 78.9553H273.894C273.407 78.9553 273.163 79.199 273.163 79.6864V87.4844C273.163 87.9718 273.407 88.2155 273.894 88.2155H274.625Z" fill="white"></path><path d="M281.692 83.3417V77.4932H283.398V89.6776H281.692V87.2407L279.986 81.6359V89.6776H278.281V77.4932H279.986L281.692 83.3417Z" fill="white"></path><path d="M287.297 85.0476V83.5854H289.733V89.434H286.566C285.347 89.434 284.616 88.7029 284.616 87.4845V79.4427C284.616 77.9806 285.347 77.2495 286.566 77.2495H287.784C289.246 77.2495 289.733 77.9806 289.733 79.4427V80.6612H288.028V79.6864C288.028 79.199 287.784 78.7116 287.297 78.7116H286.809C286.322 78.7116 286.078 78.9553 286.078 79.6864V87.2408C286.078 87.7281 286.322 88.2155 286.809 88.2155H288.028V85.2913H287.297V85.0476Z" fill="white"></path><path d="M297.287 83.3417V77.4932H298.993V89.6776H297.287V87.2407L295.582 81.6359V89.6776H293.876V77.4932H295.582L297.287 83.3417Z" fill="white"></path><path d="M302.892 85.0476V83.5854H305.329V89.434H302.161C300.943 89.434 300.212 88.7029 300.212 87.4845V79.4427C300.212 77.9806 300.943 77.2495 302.161 77.2495H303.379C304.842 77.2495 305.329 77.9806 305.329 79.4427V80.6612H303.623V79.6864C303.623 79.199 303.38 78.7116 302.892 78.7116H302.405C301.917 78.7116 301.674 78.9553 301.674 79.6864V87.2408C301.674 87.7281 301.917 88.2155 302.405 88.2155H303.623V85.2913H302.892V85.0476Z" fill="white"></path><path d="M310.202 89.6776V84.0728H308.253V89.6776H306.547V77.4932H308.253V82.6106H310.202V77.4932H311.908V89.6776H310.202Z" fill="white"></path><path d="M313.37 89.6776V77.4932H317.513V78.9553H315.076V82.6107H317.269V84.0728H315.076V88.2155H317.513V89.6776H313.37V89.6776ZM315.563 75.5437L314.832 76.5184H313.614L315.076 74.5689H316.051L317.513 76.5184H316.294L315.563 75.5437ZM316.051 90.6524V92.6019H314.589V90.6524H316.051Z" fill="white"></path></svg>